<svg xmlns="http://www.w3.org/2000/svg" width="52" height="52" viewBox="0 0 52 52">
  <g id="Group_15034" data-name="Group 15034" transform="translate(671 -3198)">
    <rect id="Rectangle_5380" data-name="Rectangle 5380" width="52" height="52" transform="translate(-671 3198)" fill="#1fc3bc"/>
    <g id="user_1_" data-name="user (1)" transform="translate(-682.753 3199.245)">
      <g id="Group_12522" data-name="Group 12522" transform="translate(12 -1)">
        <path id="Path_20658" data-name="Path 20658" d="M43.965,33.3a25.655,25.655,0,0,0-9.787-6.139,14.889,14.889,0,1,0-16.849,0A25.795,25.795,0,0,0,0,51.508H4.024a21.73,21.73,0,0,1,43.46,0h4.024A25.586,25.586,0,0,0,43.965,33.3ZM25.754,25.754A10.865,10.865,0,1,1,36.619,14.889,10.877,10.877,0,0,1,25.754,25.754Z" transform="translate(0)" fill="#fff"/>
      </g>
    </g>
  </g>
</svg>
