<svg xmlns="http://www.w3.org/2000/svg" width="269.45" height="194.021" viewBox="0 0 269.45 194.021">
  <g id="Group_15035" data-name="Group 15035" transform="translate(829.939 -3109.685)">
    <g id="Group_15034" data-name="Group 15034" transform="translate(-820.388 3117.997)">
      <g id="Group_14293" data-name="Group 14293" transform="translate(-7.692 -6.962)">
        <g id="Group_14291" data-name="Group 14291" opacity="0.752">
          <g id="Group_12978" data-name="Group 12978" transform="translate(11.686)" opacity="0.602">
            <g id="Group_12970" data-name="Group 12970" transform="translate(142.254 107.372) rotate(-17)" opacity="0.303">
              <path id="Path_22082" data-name="Path 22082" d="M53.57,36.158S64.564-.278,45.589,0s-7.905,36.157-7.905,36.157S5.9,14.4.526,32.787,32.837,50.8,32.837,50.8,2.662,72.3,17.4,84.647,45.589,61.173,45.589,61.173,57.757,96.368,73.221,84.647,57.368,50.8,57.368,50.8s37.639.649,33.085-18.018S53.57,36.158,53.57,36.158Z" transform="translate(0 0)" fill="none" stroke="#fff" stroke-width="2"/>
              <path id="Path_22083" data-name="Path 22083" d="M24.382,22.475S24.345-.163,28.365,0s5.116,22.474,5.116,22.474,23.512-7,24.965-3.561S36.7,31,36.7,31,50.356,50.378,47.2,52.388s-18.838-15.83-18.838-15.83S16.123,53.586,12.551,51.647,21.868,31,21.868,31-.78,25.755.021,21.643,24.382,22.475,24.382,22.475Z" transform="translate(16.805 17.944)" fill="#fff" stroke="#fff" stroke-width="2"/>
            </g>
            <g id="Group_14274" data-name="Group 14274" transform="translate(29.686 3.11) rotate(8)" opacity="0.303">
              <path id="Path_22082-2" data-name="Path 22082" d="M53.57,36.158S64.564-.278,45.589,0s-7.905,36.157-7.905,36.157S5.9,14.4.526,32.787,32.837,50.8,32.837,50.8,2.662,72.3,17.4,84.647,45.589,61.173,45.589,61.173,57.757,96.368,73.221,84.647,57.368,50.8,57.368,50.8s37.639.649,33.085-18.018S53.57,36.158,53.57,36.158Z" transform="translate(0 0)" fill="none" stroke="#fff" stroke-width="2"/>
              <path id="Path_22083-2" data-name="Path 22083" d="M24.382,22.475S24.345-.163,28.365,0s5.116,22.474,5.116,22.474,23.512-7,24.965-3.561S36.7,31,36.7,31,50.356,50.378,47.2,52.388s-18.838-15.83-18.838-15.83S16.123,53.586,12.551,51.647,21.868,31,21.868,31-.78,25.755.021,21.643,24.382,22.475,24.382,22.475Z" transform="translate(16.805 17.944)" fill="#fff" stroke="#fff" stroke-width="2"/>
            </g>
            <g id="Group_12973" data-name="Group 12973" transform="translate(97.385 128.348) rotate(25)" opacity="0.303">
              <path id="Path_22082-3" data-name="Path 22082" d="M28.483,19.225S34.328-.148,24.24,0s-4.2,19.224-4.2,19.224S3.14,7.657.279,17.433s17.18,9.58,17.18,9.58S1.415,38.441,9.252,45.007,24.24,32.526,24.24,32.526s6.47,18.713,14.692,12.481S30.5,27.013,30.5,27.013s20.013.345,17.591-9.58S28.483,19.225,28.483,19.225Z" transform="translate(0 0)" fill="none" stroke="#fff" stroke-width="1.5"/>
              <path id="Path_22083-3" data-name="Path 22083" d="M12.964,11.95S12.944-.087,15.081,0,17.8,11.95,17.8,11.95s12.5-3.724,13.274-1.894-11.564,6.426-11.564,6.426,7.262,10.3,5.586,11.372-10.016-8.417-10.016-8.417-6.509,9.054-8.408,8.023,4.954-10.978,4.954-10.978S-.415,13.694.011,11.507,12.964,11.95,12.964,11.95Z" transform="translate(8.935 9.541)" fill="#fff" stroke="#fff" stroke-width="1.5"/>
            </g>
            <g id="Group_14277" data-name="Group 14277" transform="translate(112.126 0) rotate(25)" opacity="0.303">
              <path id="Path_22082-4" data-name="Path 22082" d="M28.483,19.225S34.328-.148,24.24,0s-4.2,19.224-4.2,19.224S3.14,7.657.279,17.433s17.18,9.58,17.18,9.58S1.415,38.441,9.252,45.007,24.24,32.526,24.24,32.526s6.47,18.713,14.692,12.481S30.5,27.013,30.5,27.013s20.013.345,17.591-9.58S28.483,19.225,28.483,19.225Z" transform="translate(0 0)" fill="none" stroke="#fff" stroke-width="1.5"/>
              <path id="Path_22083-4" data-name="Path 22083" d="M12.964,11.95S12.944-.087,15.081,0,17.8,11.95,17.8,11.95s12.5-3.724,13.274-1.894-11.564,6.426-11.564,6.426,7.262,10.3,5.586,11.372-10.016-8.417-10.016-8.417-6.509,9.054-8.408,8.023,4.954-10.978,4.954-10.978S-.415,13.694.011,11.507,12.964,11.95,12.964,11.95Z" transform="translate(8.935 9.541)" fill="#fff" stroke="#fff" stroke-width="1.5"/>
            </g>
            <g id="Group_12976" data-name="Group 12976" transform="translate(12.838 78.661) rotate(25)" opacity="0.303">
              <path id="Path_22082-5" data-name="Path 22082" d="M18.654,12.591S22.482-.1,15.874,0s-2.753,12.59-2.753,12.59S2.056,5.015.183,11.417s11.251,6.274,11.251,6.274S.927,25.175,6.059,29.475,15.874,21.3,15.874,21.3s4.237,12.255,9.622,8.174-5.52-11.784-5.52-11.784,13.106.226,11.521-6.274S18.654,12.591,18.654,12.591Z" transform="translate(0 0)" fill="none" stroke="#fff" stroke-width="1"/>
              <path id="Path_22083-5" data-name="Path 22083" d="M8.49,7.826S8.477-.057,9.877,0s1.782,7.826,1.782,7.826,8.187-2.439,8.693-1.24-7.573,4.209-7.573,4.209,4.756,6.748,3.658,7.448-6.56-5.512-6.56-5.512S5.614,18.659,4.37,17.984s3.244-7.19,3.244-7.19S-.272,8.968.007,7.536,8.49,7.826,8.49,7.826Z" transform="translate(5.852 6.248)" fill="#fff" stroke="#fff" stroke-width="1"/>
            </g>
            <g id="Group_14286" data-name="Group 14286" transform="translate(54.705 79.343) rotate(25)" opacity="0.303">
              <path id="Path_22082-6" data-name="Path 22082" d="M18.654,12.591S22.482-.1,15.874,0s-2.753,12.59-2.753,12.59S2.056,5.015.183,11.417s11.251,6.274,11.251,6.274S.927,25.175,6.059,29.475,15.874,21.3,15.874,21.3s4.237,12.255,9.622,8.174-5.52-11.784-5.52-11.784,13.106.226,11.521-6.274S18.654,12.591,18.654,12.591Z" transform="translate(0 0)" fill="none" stroke="#fff" stroke-width="1"/>
              <path id="Path_22083-6" data-name="Path 22083" d="M8.49,7.826S8.477-.057,9.877,0s1.782,7.826,1.782,7.826,8.187-2.439,8.693-1.24-7.573,4.209-7.573,4.209,4.756,6.748,3.658,7.448-6.56-5.512-6.56-5.512S5.614,18.659,4.37,17.984s3.244-7.19,3.244-7.19S-.272,8.968.007,7.536,8.49,7.826,8.49,7.826Z" transform="translate(5.852 6.248)" fill="#fff" stroke="#fff" stroke-width="1"/>
            </g>
            <g id="Group_14281" data-name="Group 14281" transform="translate(105.269 92.941) rotate(25)" opacity="0.303">
              <path id="Path_22082-7" data-name="Path 22082" d="M18.654,12.591S22.482-.1,15.874,0s-2.753,12.59-2.753,12.59S2.056,5.015.183,11.417s11.251,6.274,11.251,6.274S.927,25.175,6.059,29.475,15.874,21.3,15.874,21.3s4.237,12.255,9.622,8.174-5.52-11.784-5.52-11.784,13.106.226,11.521-6.274S18.654,12.591,18.654,12.591Z" transform="translate(0 0)" fill="none" stroke="#fff" stroke-width="1"/>
              <path id="Path_22083-7" data-name="Path 22083" d="M8.49,7.826S8.477-.057,9.877,0s1.782,7.826,1.782,7.826,8.187-2.439,8.693-1.24-7.573,4.209-7.573,4.209,4.756,6.748,3.658,7.448-6.56-5.512-6.56-5.512S5.614,18.659,4.37,17.984s3.244-7.19,3.244-7.19S-.272,8.968.007,7.536,8.49,7.826,8.49,7.826Z" transform="translate(5.852 6.248)" fill="#fff" stroke="#fff" stroke-width="1"/>
            </g>
            <g id="Group_14276" data-name="Group 14276" transform="translate(4.937 153.38)" opacity="0.303">
              <path id="Path_22082-8" data-name="Path 22082" d="M18.654,12.591S22.482-.1,15.874,0s-2.753,12.59-2.753,12.59S2.056,5.015.183,11.417s11.251,6.274,11.251,6.274S.927,25.175,6.059,29.475,15.874,21.3,15.874,21.3s4.237,12.255,9.622,8.174-5.52-11.784-5.52-11.784,13.106.226,11.521-6.274S18.654,12.591,18.654,12.591Z" transform="translate(0 0)" fill="none" stroke="#fff" stroke-width="1"/>
              <path id="Path_22083-8" data-name="Path 22083" d="M8.49,7.826S8.477-.057,9.877,0s1.782,7.826,1.782,7.826,8.187-2.439,8.693-1.24-7.573,4.209-7.573,4.209,4.756,6.748,3.658,7.448-6.56-5.512-6.56-5.512S5.614,18.659,4.37,17.984s3.244-7.19,3.244-7.19S-.272,8.968.007,7.536,8.49,7.826,8.49,7.826Z" transform="translate(5.852 6.248)" fill="#fff" stroke="#fff" stroke-width="1"/>
            </g>
            <g id="Group_12977" data-name="Group 12977" transform="translate(162.918 79.046) rotate(-23)" opacity="0.303">
              <path id="Path_22082-9" data-name="Path 22082" d="M12.484,8.426S15.046-.065,10.624,0,8.782,8.426,8.782,8.426,1.376,3.356.122,7.641s7.53,4.2,7.53,4.2-7.032,5.009-3.6,7.887,6.569-5.47,6.569-5.47,2.836,8.2,6.439,5.47-3.694-7.887-3.694-7.887,8.771.151,7.71-4.2S12.484,8.426,12.484,8.426Z" transform="translate(0 0)" fill="none" stroke="#fff" stroke-width="1"/>
              <path id="Path_22083-9" data-name="Path 22083" d="M5.682,5.237S5.673-.038,6.61,0,7.8,5.237,7.8,5.237s5.479-1.632,5.818-.83S8.552,7.224,8.552,7.224,11.735,11.74,11,12.208,6.61,8.52,6.61,8.52s-2.853,3.968-3.685,3.516S5.1,7.224,5.1,7.224-.182,6,0,5.044,5.682,5.237,5.682,5.237Z" transform="translate(3.916 4.182)" fill="#fff" stroke="#fff" stroke-width="1"/>
            </g>
            <g id="Group_14288" data-name="Group 14288" transform="translate(139.979 15.233) rotate(-23)" opacity="0.303">
              <path id="Path_22082-10" data-name="Path 22082" d="M12.484,8.426S15.046-.065,10.624,0,8.782,8.426,8.782,8.426,1.376,3.356.122,7.641s7.53,4.2,7.53,4.2-7.032,5.009-3.6,7.887,6.569-5.47,6.569-5.47,2.836,8.2,6.439,5.47-3.694-7.887-3.694-7.887,8.771.151,7.71-4.2S12.484,8.426,12.484,8.426Z" transform="translate(0 0)" fill="none" stroke="#fff" stroke-width="1"/>
              <path id="Path_22083-10" data-name="Path 22083" d="M5.682,5.237S5.673-.038,6.61,0,7.8,5.237,7.8,5.237s5.479-1.632,5.818-.83S8.552,7.224,8.552,7.224,11.735,11.74,11,12.208,6.61,8.52,6.61,8.52s-2.853,3.968-3.685,3.516S5.1,7.224,5.1,7.224-.182,6,0,5.044,5.682,5.237,5.682,5.237Z" transform="translate(3.916 4.182)" fill="#fff" stroke="#fff" stroke-width="1"/>
            </g>
            <g id="Group_14285" data-name="Group 14285" transform="translate(216.547 165.044) rotate(-23)" opacity="0.303">
              <path id="Path_22082-11" data-name="Path 22082" d="M12.484,8.426S15.046-.065,10.624,0,8.782,8.426,8.782,8.426,1.376,3.356.122,7.641s7.53,4.2,7.53,4.2-7.032,5.009-3.6,7.887,6.569-5.47,6.569-5.47,2.836,8.2,6.439,5.47-3.694-7.887-3.694-7.887,8.771.151,7.71-4.2S12.484,8.426,12.484,8.426Z" transform="translate(0 0)" fill="none" stroke="#fff" stroke-width="1"/>
              <path id="Path_22083-11" data-name="Path 22083" d="M5.682,5.237S5.673-.038,6.61,0,7.8,5.237,7.8,5.237s5.479-1.632,5.818-.83S8.552,7.224,8.552,7.224,11.735,11.74,11,12.208,6.61,8.52,6.61,8.52s-2.853,3.968-3.685,3.516S5.1,7.224,5.1,7.224-.182,6,0,5.044,5.682,5.237,5.682,5.237Z" transform="translate(3.916 4.182)" fill="#fff" stroke="#fff" stroke-width="1"/>
            </g>
            <g id="Group_14280" data-name="Group 14280" transform="translate(142.162 99.864) rotate(17)" opacity="0.303">
              <path id="Path_22082-12" data-name="Path 22082" d="M12.484,8.426S15.046-.065,10.624,0,8.782,8.426,8.782,8.426,1.376,3.356.122,7.641s7.53,4.2,7.53,4.2-7.032,5.009-3.6,7.887,6.569-5.47,6.569-5.47,2.836,8.2,6.439,5.47-3.694-7.887-3.694-7.887,8.771.151,7.71-4.2S12.484,8.426,12.484,8.426Z" transform="translate(0 0)" fill="none" stroke="#fff" stroke-width="1"/>
              <path id="Path_22083-12" data-name="Path 22083" d="M5.682,5.237S5.673-.038,6.61,0,7.8,5.237,7.8,5.237s5.479-1.632,5.818-.83S8.552,7.224,8.552,7.224,11.735,11.74,11,12.208,6.61,8.52,6.61,8.52s-2.853,3.968-3.685,3.516S5.1,7.224,5.1,7.224-.182,6,0,5.044,5.682,5.237,5.682,5.237Z" transform="translate(3.916 4.182)" fill="#fff" stroke="#fff" stroke-width="1"/>
            </g>
            <g id="Group_14278" data-name="Group 14278" transform="translate(144.164 154.707) rotate(27)" opacity="0.303">
              <path id="Path_22082-13" data-name="Path 22082" d="M12.484,8.426S15.046-.065,10.624,0,8.782,8.426,8.782,8.426,1.376,3.356.122,7.641s7.53,4.2,7.53,4.2-7.032,5.009-3.6,7.887,6.569-5.47,6.569-5.47,2.836,8.2,6.439,5.47-3.694-7.887-3.694-7.887,8.771.151,7.71-4.2S12.484,8.426,12.484,8.426Z" transform="translate(0 0)" fill="none" stroke="#fff" stroke-width="1"/>
              <path id="Path_22083-13" data-name="Path 22083" d="M5.682,5.237S5.673-.038,6.61,0,7.8,5.237,7.8,5.237s5.479-1.632,5.818-.83S8.552,7.224,8.552,7.224,11.735,11.74,11,12.208,6.61,8.52,6.61,8.52s-2.853,3.968-3.685,3.516S5.1,7.224,5.1,7.224-.182,6,0,5.044,5.682,5.237,5.682,5.237Z" transform="translate(3.916 4.182)" fill="#fff" stroke="#fff" stroke-width="1"/>
            </g>
            <g id="Group_14279" data-name="Group 14279" transform="translate(14.167 50.732) rotate(27)" opacity="0.303">
              <path id="Path_22082-14" data-name="Path 22082" d="M12.484,8.426S15.046-.065,10.624,0,8.782,8.426,8.782,8.426,1.376,3.356.122,7.641s7.53,4.2,7.53,4.2-7.032,5.009-3.6,7.887,6.569-5.47,6.569-5.47,2.836,8.2,6.439,5.47-3.694-7.887-3.694-7.887,8.771.151,7.71-4.2S12.484,8.426,12.484,8.426Z" transform="translate(0 0)" fill="none" stroke="#fff" stroke-width="1"/>
              <path id="Path_22083-14" data-name="Path 22083" d="M5.682,5.237S5.673-.038,6.61,0,7.8,5.237,7.8,5.237s5.479-1.632,5.818-.83S8.552,7.224,8.552,7.224,11.735,11.74,11,12.208,6.61,8.52,6.61,8.52s-2.853,3.968-3.685,3.516S5.1,7.224,5.1,7.224-.182,6,0,5.044,5.682,5.237,5.682,5.237Z" transform="translate(3.916 4.182)" fill="#fff" stroke="#fff" stroke-width="1"/>
            </g>
            <g id="Group_14287" data-name="Group 14287" transform="translate(17.706 4.531) rotate(27)" opacity="0.303">
              <path id="Path_22082-15" data-name="Path 22082" d="M12.484,8.426S15.046-.065,10.624,0,8.782,8.426,8.782,8.426,1.376,3.356.122,7.641s7.53,4.2,7.53,4.2-7.032,5.009-3.6,7.887,6.569-5.47,6.569-5.47,2.836,8.2,6.439,5.47-3.694-7.887-3.694-7.887,8.771.151,7.71-4.2S12.484,8.426,12.484,8.426Z" transform="translate(0 0)" fill="none" stroke="#fff" stroke-width="1"/>
              <path id="Path_22083-15" data-name="Path 22083" d="M5.682,5.237S5.673-.038,6.61,0,7.8,5.237,7.8,5.237s5.479-1.632,5.818-.83S8.552,7.224,8.552,7.224,11.735,11.74,11,12.208,6.61,8.52,6.61,8.52s-2.853,3.968-3.685,3.516S5.1,7.224,5.1,7.224-.182,6,0,5.044,5.682,5.237,5.682,5.237Z" transform="translate(3.916 4.182)" fill="#fff" stroke="#fff" stroke-width="1"/>
            </g>
            <g id="Group_12975" data-name="Group 12975" transform="translate(222.378 63.891) rotate(25)" opacity="0.303">
              <path id="Path_22082-16" data-name="Path 22082" d="M18.581,12.542S22.395-.1,15.813,0s-2.742,12.541-2.742,12.541S2.048,5,.182,11.373s11.207,6.25,11.207,6.25S.923,25.078,6.036,29.361s9.777-8.142,9.777-8.142,4.22,12.208,9.584,8.142-5.5-11.739-5.5-11.739,13.056.225,11.476-6.25S18.581,12.542,18.581,12.542Z" transform="translate(0 0)" fill="none" stroke="#fff" stroke-width="1"/>
              <path id="Path_22083-16" data-name="Path 22083" d="M8.457,7.8S8.444-.057,9.839,0s1.775,7.8,1.775,7.8,8.155-2.43,8.659-1.235-7.544,4.192-7.544,4.192,4.738,6.722,3.644,7.419-6.534-5.491-6.534-5.491-4.246,5.906-5.485,5.234,3.232-7.162,3.232-7.162S-.271,8.933.007,7.507,8.457,7.8,8.457,7.8Z" transform="translate(5.829 6.224)" fill="#fff" stroke="#fff" stroke-width="1"/>
            </g>
            <g id="Group_14284" data-name="Group 14284" transform="translate(217.643 11.885) rotate(25)" opacity="0.303">
              <path id="Path_22082-17" data-name="Path 22082" d="M18.581,12.542S22.395-.1,15.813,0s-2.742,12.541-2.742,12.541S2.048,5,.182,11.373s11.207,6.25,11.207,6.25S.923,25.078,6.036,29.361s9.777-8.142,9.777-8.142,4.22,12.208,9.584,8.142-5.5-11.739-5.5-11.739,13.056.225,11.476-6.25S18.581,12.542,18.581,12.542Z" transform="translate(0 0)" fill="none" stroke="#fff" stroke-width="1"/>
              <path id="Path_22083-17" data-name="Path 22083" d="M8.457,7.8S8.444-.057,9.839,0s1.775,7.8,1.775,7.8,8.155-2.43,8.659-1.235-7.544,4.192-7.544,4.192,4.738,6.722,3.644,7.419-6.534-5.491-6.534-5.491-4.246,5.906-5.485,5.234,3.232-7.162,3.232-7.162S-.271,8.933.007,7.507,8.457,7.8,8.457,7.8Z" transform="translate(5.829 6.224)" fill="#fff" stroke="#fff" stroke-width="1"/>
            </g>
            <g id="Group_12974" data-name="Group 12974" transform="translate(12.01 113.272) rotate(-18)" opacity="0.303">
              <path id="Path_22082-18" data-name="Path 22082" d="M40.854,27.575S49.238-.212,34.768,0s-6.029,27.574-6.029,27.574S4.5,10.983.4,25,25.042,38.745,25.042,38.745,2.03,55.137,13.271,64.555s21.5-17.9,21.5-17.9,9.279,26.841,21.073,17.9-12.09-25.81-12.09-25.81,28.7.5,25.232-13.741S40.854,27.575,40.854,27.575Z" transform="translate(0 0)" fill="none" stroke="#fff" stroke-width="2"/>
              <path id="Path_22083-18" data-name="Path 22083" d="M18.595,17.14S18.566-.125,21.632,0s3.9,17.139,3.9,17.139S43.464,11.8,44.573,14.424s-16.587,9.217-16.587,9.217S38.4,38.42,36,39.953,21.632,27.881,21.632,27.881,12.3,40.867,9.572,39.388s7.105-15.746,7.105-15.746S-.6,19.641.016,16.505,18.595,17.14,18.595,17.14Z" transform="translate(12.816 13.685)" fill="#fff" stroke="#fff" stroke-width="2"/>
            </g>
            <g id="Group_14275" data-name="Group 14275" transform="translate(140.689 62.784) rotate(-65)" opacity="0.303">
              <path id="Path_22082-19" data-name="Path 22082" d="M40.854,27.575S49.238-.212,34.768,0s-6.029,27.574-6.029,27.574S4.5,10.983.4,25,25.042,38.745,25.042,38.745,2.03,55.137,13.271,64.555s21.5-17.9,21.5-17.9,9.279,26.841,21.073,17.9-12.09-25.81-12.09-25.81,28.7.5,25.232-13.741S40.854,27.575,40.854,27.575Z" transform="translate(0 0)" fill="none" stroke="#fff" stroke-width="2"/>
              <path id="Path_22083-19" data-name="Path 22083" d="M18.595,17.14S18.566-.125,21.632,0s3.9,17.139,3.9,17.139S43.464,11.8,44.573,14.424s-16.587,9.217-16.587,9.217S38.4,38.42,36,39.953,21.632,27.881,21.632,27.881,12.3,40.867,9.572,39.388s7.105-15.746,7.105-15.746S-.6,19.641.016,16.505,18.595,17.14,18.595,17.14Z" transform="translate(12.816 13.685)" fill="#fff" stroke="#fff" stroke-width="2"/>
            </g>
          </g>
          <path id="Path_22082-20" data-name="Path 22082" d="M79.178,53.443S95.427-.411,67.381,0,55.7,53.443,55.7,53.443,8.728,21.285.777,48.46,48.533,75.09,48.533,75.09s-44.6,31.768-22.814,50.021,41.662-34.7,41.662-34.7,17.983,52.019,40.84,34.7S84.791,75.09,84.791,75.09s55.631.959,48.9-26.63a16.263,16.263,0,0,0-2.9-6.241C118.747,26.469,79.178,53.443,79.178,53.443Z" transform="matrix(0.966, 0.259, -0.259, 0.966, 33.372, 31.504)" fill="none" stroke="#f7bf65" stroke-width="3" opacity="0.6"/>
          <path id="Path_22267" data-name="Path 22267" d="M36.619,24.716S44.134-.19,31.163,0s-5.4,24.715-5.4,24.715S4.037,9.844.359,22.412,22.446,34.728,22.446,34.728,1.82,49.42,11.9,57.862,31.163,41.816,31.163,41.816,39.48,65.874,50.051,57.862,39.215,34.728,39.215,34.728s25.729.444,22.616-12.316a7.523,7.523,0,0,0-1.339-2.886C54.919,12.242,36.619,24.716,36.619,24.716Z" transform="translate(171.541 43.802) rotate(-31)" fill="none" stroke="#f7bf65" stroke-width="2" opacity="0.6"/>
          <path id="Path_22268" data-name="Path 22268" d="M23.962,16.174S28.88-.124,20.392,0s-3.536,16.173-3.536,16.173S2.641,6.442.235,14.666s14.453,8.059,14.453,8.059-13.5,9.614-6.9,15.138,12.608-10.5,12.608-10.5,5.443,15.743,12.36,10.5-7.091-15.138-7.091-15.138,16.836.29,14.8-8.059a4.927,4.927,0,0,0-.876-1.889C35.937,8.011,23.962,16.174,23.962,16.174Z" transform="translate(194.047 149.666) rotate(-31)" fill="none" stroke="#f7bf65" stroke-width="2" opacity="0.6"/>
          <path id="Path_22269" data-name="Path 22269" d="M19.056,12.862S22.967-.1,16.217,0,13.4,12.862,13.4,12.862,2.1,5.123.187,11.663s11.494,6.409,11.494,6.409S.947,25.718,6.19,30.11s10.027-8.35,10.027-8.35,4.329,12.519,9.829,8.35-5.639-12.039-5.639-12.039S33.8,18.3,32.176,11.663a3.918,3.918,0,0,0-.7-1.5C28.579,6.37,19.056,12.862,19.056,12.862Z" transform="translate(19.821 29.17) rotate(-31)" fill="none" stroke="#ffb162" stroke-width="1" opacity="0.6"/>
        </g>
      </g>
    </g>
  </g>
</svg>
