<?xml version="1.0" standalone="no"?>
<!DOCTYPE svg PUBLIC "-//W3C//DTD SVG 20010904//EN"
 "http://www.w3.org/TR/2001/REC-SVG-20010904/DTD/svg10.dtd">
<svg version="1.0" xmlns="http://www.w3.org/2000/svg"
 width="900.000000pt" height="940.000000pt" viewBox="0 0 900.000000 940.000000"
 preserveAspectRatio="xMidYMid meet">

<g transform="translate(0.000000,940.000000) scale(0.100000,-0.100000)"
fill="#000000" stroke="none">
<path d="M821 8571 l-31 -29 0 -3256 c0 -2438 3 -3261 12 -3280 6 -14 21 -32
32 -39 17 -12 540 -181 1131 -367 335 -106 1914 -610 1938 -619 16 -6 48 -11
72 -11 34 0 50 6 74 29 l31 29 0 434 c0 238 3 443 6 455 l6 22 797 3 c741 3
798 4 822 21 14 9 31 29 37 43 9 18 12 343 12 1240 0 1320 3 1253 -55 1284
-47 25 -95 16 -132 -24 l-33 -36 0 -1138 c0 -872 -3 -1141 -12 -1150 -9 -9
-183 -12 -720 -12 -689 0 -708 0 -718 19 -7 14 -10 870 -10 2695 l0 2675 -22
26 c-22 25 -94 51 -523 185 -49 16 -304 97 -565 180 -261 83 -623 199 -805
257 -181 57 -342 111 -356 119 -35 18 -45 34 -28 45 8 5 832 9 1874 9 1434 0
1864 -3 1873 -12 9 -9 12 -276 12 -1139 0 -777 3 -1136 11 -1157 27 -78 145
-90 192 -19 16 24 17 114 17 1247 0 899 -3 1227 -11 1243 -7 12 -21 29 -33 39
-20 16 -147 17 -2442 18 l-2422 0 -31 -29z"/>
<path d="M5790 7307 c0 -1356 4 -1266 -63 -1307 -36 -22 -106 -26 -140 -9 -16
8 -12 1 12 -24 85 -90 198 -87 248 5 17 31 18 98 18 1260 l0 1228 -37 37 -38
38 0 -1228z"/>
<path d="M1870 8351 l-45 -6 105 -33 105 -32 1738 0 1738 0 -3 34 -3 34 -1795
4 c-987 3 -1815 2 -1840 -1z"/>
<path d="M4110 4891 c0 -1463 3 -2666 6 -2675 4 -10 18 -16 40 -16 l34 0 -2
2638 -3 2639 -28 36 c-15 20 -32 37 -37 37 -6 0 -10 -1003 -10 -2659z"/>
<path d="M6274 7026 c-39 -39 -45 -85 -18 -126 9 -14 341 -349 736 -746 531
-531 719 -726 716 -740 -3 -19 -41 -19 -1540 -24 l-1537 -5 -30 -29 c-55 -53
-50 -124 12 -170 l28 -21 1532 -5 c1494 -5 1532 -5 1535 -24 3 -14 -185 -209
-716 -740 -395 -397 -727 -732 -736 -746 -26 -39 -20 -84 15 -125 28 -31 36
-35 82 -35 l51 0 854 852 c469 469 860 865 868 880 22 41 17 81 -15 124 -16
21 -406 416 -868 877 l-839 837 -48 0 c-41 0 -53 -5 -82 -34z"/>
<path d="M8170 5283 c0 -17 -5 -44 -11 -60 -10 -29 -1654 -1683 -1723 -1734
-42 -31 -106 -39 -149 -18 -12 5 0 -10 26 -35 52 -49 93 -63 149 -51 27 6 189
163 877 848 463 463 856 860 872 881 43 57 41 114 -6 164 l-34 37 -1 -32z"/>
<path d="M4627 5118 c59 -62 -48 -58 1540 -58 l1449 0 34 35 c18 19 31 37 29
40 -3 3 -697 6 -1542 7 l-1536 3 26 -27z"/>
<path d="M5790 3243 c0 -1178 -1 -1229 -19 -1256 -43 -66 15 -61 -861 -67
l-795 -5 -5 -445 c-6 -497 -4 -486 -75 -516 -63 -26 -18 -38 -890 241 -110 35
-450 143 -755 240 -305 97 -760 242 -1010 321 -250 80 -480 153 -510 164 l-55
19 46 -42 c36 -33 66 -49 130 -69 46 -15 147 -47 224 -71 180 -58 783 -250
900 -287 50 -15 198 -63 330 -105 132 -42 282 -90 333 -106 149 -47 263 -83
517 -164 132 -42 281 -90 330 -105 50 -16 153 -49 230 -74 77 -26 158 -49 180
-52 51 -7 102 20 130 67 19 32 20 55 23 471 l3 438 782 0 c744 0 784 1 817 19
19 10 44 34 55 52 20 34 20 52 20 1260 l-1 1226 -29 36 c-17 20 -33 36 -37 36
-5 1 -8 -551 -8 -1226z"/>
</g>
</svg>
