<?xml version="1.0" standalone="no"?>
<!DOCTYPE svg PUBLIC "-//W3C//DTD SVG 20010904//EN"
 "http://www.w3.org/TR/2001/REC-SVG-20010904/DTD/svg10.dtd">
<svg version="1.0" xmlns="http://www.w3.org/2000/svg"
 width="200.000000pt" height="200.000000pt" viewBox="0 0 200.000000 200.000000"
 preserveAspectRatio="xMidYMid meet">

<g transform="translate(0.000000,200.000000) scale(0.100000,-0.100000)"
fill="#000000" stroke="none">
<path d="M620 1591 c0 -187 0 -189 -22 -195 -13 -3 -32 -6 -43 -6 -33 0 -140
-56 -183 -95 -163 -147 -174 -394 -26 -555 61 -66 129 -104 216 -122 l58 -12
0 -183 0 -183 -40 0 c-33 0 -40 -3 -40 -20 0 -20 7 -20 600 -20 593 0 600 0
600 20 0 17 -7 20 -40 20 l-40 0 0 770 0 770 -520 0 -520 0 0 -189z m1000
-601 l0 -750 -480 0 -480 0 0 183 0 183 68 17 c113 29 214 112 261 213 l21 44
65 0 65 0 2 -252 3 -251 205 -53 c113 -30 211 -54 218 -54 9 0 12 151 12 720
0 569 -3 720 -12 720 -7 0 -105 -24 -218 -53 l-205 -54 -3 -221 -2 -222 -73 0
-72 0 -24 45 c-43 81 -151 162 -241 180 -76 15 -70 -2 -70 186 l0 169 480 0
480 0 0 -750z m-184 55 l33 -30 -102 -89 -102 -89 -3 41 -3 42 -119 0 -118 0
5 58 c3 31 0 76 -5 100 l-10 42 124 0 124 0 0 41 0 41 71 -63 c40 -35 87 -77
105 -94z m-716 -50 l-130 -130 -75 75 -75 75 30 29 30 30 48 -47 48 -47 99
100 99 100 28 -27 29 -27 -131 -131z"/>
</g>
</svg>
