<svg xmlns="http://www.w3.org/2000/svg" xmlns:xlink="http://www.w3.org/1999/xlink" width="216.435" height="170.467" viewBox="0 0 216.435 170.467">
  <defs>
    <linearGradient id="linear-gradient" x1="1.216" y1="0.891" x2="0.043" y2="0.251" gradientUnits="objectBoundingBox">
      <stop offset="0" stop-color="#444b8c"/>
      <stop offset="0.996" stop-color="#26264f"/>
    </linearGradient>
  </defs>
  <g id="Group_13038" data-name="Group 13038" transform="translate(-96.34 -401.533)">
    <ellipse id="Ellipse_1824" data-name="Ellipse 1824" cx="85" cy="7.5" rx="85" ry="7.5" transform="translate(124 557)" fill="#e3e3e3"/>
    <g id="Group_12997" data-name="Group 12997">
      <g id="Group_13001" data-name="Group 13001">
        <g id="Group_12995" data-name="Group 12995" transform="translate(-1648.3 1120.873)">
          <g id="Group_12993" data-name="Group 12993" transform="translate(1772.358 -679.098)">
            <path id="Path_22106" data-name="Path 22106" d="M1542.1,2200.321l-157.666,3.158a3.763,3.763,0,0,1-3.84-3.792V2085.1a3.881,3.881,0,0,1,3.84-3.891l157.666-.858a3.72,3.72,0,0,1,3.693,3.774v112.325A3.837,3.837,0,0,1,1542.1,2200.321Z" transform="translate(-1380.593 -2080.354)" fill="#fff" stroke="#000" stroke-width="1"/>
            <path id="Path_22108" data-name="Path 22108" d="M1428.534,2115.788a3.182,3.182,0,0,1-1.98-.676l-77.3-58.937a5.132,5.132,0,0,1-1.158-6.281c1.117-2.127,3.445-2.764,5.2-1.424L1428.6,2106l79.344-58.323c1.715-1.261,3.929-.572,4.945,1.541a5.093,5.093,0,0,1-1.267,6.11l-81.212,59.811A3.236,3.236,0,0,1,1428.534,2115.788Z" transform="translate(-1347.511 -2047.042)" fill="#ff4040"/>
          </g>
        </g>
        <g id="Group_13000" data-name="Group 13000">
          <g id="Group_12997-2" data-name="Group 12997" transform="translate(192.379 404.909)">
            <g id="Group_12991" data-name="Group 12991" transform="translate(0.289 0)">
              <g id="Group_12990" data-name="Group 12990">
                <path id="Path_22110" data-name="Path 22110" d="M2518.512,1706.687c6.913-3.376,44.488,22.375,40,36.69s-22.26,22.22-39.9,25.6q-.744-2.66-1.489-5.319c1.928-2.008,24.519-17.668,24.519-17.668l-26.434-16.589S2513.2,1709.281,2518.512,1706.687Z" transform="translate(-2480.184 -1644.74)" fill="#404040"/>
                <path id="Path_22111" data-name="Path 22111" d="M2688.582,3043.318s-1.135,2.8-.571,3.9c.592,1.151,2.305.809,7.128.99,4.939.186,6.056.582,6.253.086.395-.992-3.443-4.14-7.932-4.972A13.634,13.634,0,0,0,2688.582,3043.318Z" transform="translate(-2641.171 -2888.539)" fill="#ff372f"/>
                <path id="Path_22112" data-name="Path 22112" d="M2664.646,2986.051l2.685,4.186a3.75,3.75,0,0,1-3.34.766l-2.954-3.965Z" transform="translate(-2616.219 -2835.457)" fill="#fdb784"/>
                <path id="Path_22114" data-name="Path 22114" d="M2270.919,1746.74c-.3,12.09-6.937,29.182-4.326,46.636s10.842,41.2,10.842,41.2l-3.412,1.086c-11.7-11.4-24.846-37.171-28.637-58.207s-.085-20.744,0-29.151Z" transform="translate(-2227.873 -1682.29)" fill="#404040"/>
                <path id="Path_22115" data-name="Path 22115" d="M2122.038,993.852c-2.043,11.931-4.347,14.847-4.347,14.847l-28.712,9.1a44.523,44.523,0,0,1-9.624-18.5c-2.983-11.64-4.623-22.292-2.309-28.057,3.974-9.9,14.613-14,16.384-14.681,9-3.469,24.572,1.573,32.433,4.416C2131.689,970.155,2124.081,981.921,2122.038,993.852Z" transform="translate(-2071.803 -945.939)" fill="#ff446f"/>
                <path id="Path_22117" data-name="Path 22117" d="M2543.693,1343.111c.05-.384.439-3.037,2.655-3.887,1.1-.423,3.038-.546,3.792.664a2.2,2.2,0,0,1-.19,2.56c-.786.749-1.811-.141-3.224.474-1.7.74-1.974,2.791-2.56,2.655C2543.705,1345.469,2543.561,1344.126,2543.693,1343.111Z" transform="translate(-2506.987 -1302.822)" fill="#fdb784"/>
                <path id="Path_22123" data-name="Path 22123" d="M2450.083,887.65a33.473,33.473,0,0,0-.659,3.427s.739,4.583-.61,4-6.649-6.1-4.784-6.331c2.309-.29,4.784-5.385,4.784-5.385l1.979,1.8Z" transform="translate(-2409 -878.924)" fill="#f4ac78"/>
                <path id="Path_22125" data-name="Path 22125" d="M2585.282,825.638c1.706-.253,4.913-4.536,4.875-5.722-.014-.447.7-2.055,0-2.689-.511-.5-2.147.065-3.571,0-.438-.019-.785-.942-1.3-1.067l-2.111.6-1.593-.6c-1.279-.164-1.609,1.1-2.577,2.236a4.53,4.53,0,0,0-1.3,2.321,12.7,12.7,0,0,0,0,2.228c.054.86,1.274,1.42,1.3,1.674a11.159,11.159,0,0,0,.815,3.17,7.766,7.766,0,0,1,.99-.916,6.857,6.857,0,0,1,1.506-.888C2583.542,825.491,2584.246,825.791,2585.282,825.638Z" transform="translate(-2539.789 -819.522)" fill="#444b8c"/>
                <path id="Path_22126" data-name="Path 22126" d="M2569.285,871.544a4.21,4.21,0,0,0,2.351,3.421c2.006.935,4.667-3.253,3.935-4.852a2.786,2.786,0,0,0-1.776-1.293c-.458-.106-.682-.015-1.427-.2-.687-.173-.821-.333-1.086-.28-.332.067-.755.444-1.071,1.921-.165-.576-.529-.963-.925-.987a.753.753,0,0,0-.4.11C2568.348,869.73,2568.454,870.612,2569.285,871.544Z" transform="translate(-2530.165 -864.935)" fill="#fdb784"/>
              </g>
            </g>
            <path id="Path_22127" data-name="Path 22127" d="M2448.52-563.027s-30.922,10.8-19.77,36.669,36.257-4.671,36.257-4.671l-1.57-4.5s-18.3,5.438-21.631-1.677S2448.52-563.027,2448.52-563.027Z" transform="translate(-2426.325 573.658)" fill="#ffd93b"/>
            <path id="Path_22128" data-name="Path 22128" d="M3181.765-511.174s30,20.931,23.656,35.606-23.154-7.063-23.154-7.063,2.245-11.039,2.245-18.18S3181.765-511.174,3181.765-511.174Z" transform="translate(-3128.29 525.66)" fill="#ffd93b"/>
            <g id="Group_12992" data-name="Group 12992" transform="translate(47.438 22.827)">
              <path id="Path_22120" data-name="Path 22120" d="M2711.869,1149.993l-6.148,19.64a1.591,1.591,0,0,1-1.462,1.115l-8.039,1.169a1.591,1.591,0,0,1-1.611-1.927l5.421-20.1a1.591,1.591,0,0,1,1.505-1.253l8.767-.706A1.591,1.591,0,0,1,2711.869,1149.993Z" transform="translate(-2694.572 -1147.927)" fill="url(#linear-gradient)"/>
              <path id="Path_22121" data-name="Path 22121" d="M2724.322,1160.1l-5.967,19.061a1.543,1.543,0,0,1-1.419,1.082l-7.065,1.135a1.544,1.544,0,0,1-1.563-1.87l5.3-19.522a1.544,1.544,0,0,1,1.461-1.216l7.737-.674A1.544,1.544,0,0,1,2724.322,1160.1Z" transform="translate(-2707.32 -1157.386)" fill="#cb4d91"/>
            </g>
            <path id="Path_22129" data-name="Path 22129" d="M2807.794,1344.434l-.376-.614a2.628,2.628,0,0,0-2.865-1.946l-1.973.243a1.062,1.062,0,0,0-.908,1.272c.184.881.656,1.934,1.868,1.852,2.059-.139,3.375,2.862,3.375,2.862l.79-1.113A2.323,2.323,0,0,0,2807.794,1344.434Z" transform="translate(-2746.769 -1305.547)" fill="#fdb784"/>
          </g>
          <g id="Group_12999" data-name="Group 12999">
            <g id="Group_12998" data-name="Group 12998">
              <path id="Path_22130" data-name="Path 22130" d="M1659,417.82s-20.1,16.1-14.784,32.323,28.953,4.982,28.953,4.982" transform="translate(-1456.947 0.988)" fill="none" stroke="#000" stroke-width="1"/>
              <path id="Path_22131" data-name="Path 22131" d="M1700.6,421.139s20.89,13,23.268,22.025-13.757,14.065-13.757,14.065" transform="translate(-1452)" fill="none" stroke="#000" stroke-width="1"/>
              <path id="Path_22132" data-name="Path 22132" d="M1656.59,480.725s1.051,26.446,8.149,42.536,20.242,21.827,20.242,21.827" transform="translate(-1452)" fill="none" stroke="#000" stroke-width="1"/>
              <path id="Path_22133" data-name="Path 22133" d="M1696.454,474.8s32.4,11.646,33.96,25.126-27.708,28.794-27.708,28.794" transform="translate(-1452)" fill="none" stroke="#000" stroke-width="1"/>
              <path id="Path_22134" data-name="Path 22134" d="M1696.454,555.941s5.877,1.764,8.543,3.829,2.122,4.43,2.122,4.43" transform="translate(-1452)" fill="none" stroke="#000" stroke-width="1"/>
              <path id="Path_22135" data-name="Path 22135" d="M1680.306,441.775a11.411,11.411,0,0,1,4.724-1.456c2.2,0,4.1.851,4.1,1.456s-3.6,0-3.6,0a21.559,21.559,0,0,1,3.6,2.017c.366.5-2.135,0-2.135,0V445.6" transform="translate(-1452)" fill="none" stroke="#000" stroke-width="1"/>
              <path id="Path_22136" data-name="Path 22136" d="M1704.342,441.185s-6.035.231-6.848.64,3.6,1,3.6,1-2.053,1.116-2.053,1.488,2.053,0,2.053,0l.735,1.7" transform="translate(-1452)" fill="none" stroke="#000" stroke-width="1"/>
            </g>
            <path id="Path_22137" data-name="Path 22137" d="M1684.424,413.534s1.459,2,3.2,1.4,3.759-3.813,3.759-3.813" transform="translate(-1452)" fill="none" stroke="#000" stroke-width="1"/>
          </g>
        </g>
      </g>
      <path id="Path_22138" data-name="Path 22138" d="M1727.353,564.353s-9.163-28.742,4.007-29.271,15.352,15.963,10.366,15.963-18.3-7.56-13.329-18.922,33.212-2.916,24.466,4.66-17.907-7.166-14.723-13.062,26.481,1.722,26.481,1.722" transform="translate(-1452)" fill="none" stroke="#000" stroke-width="1"/>
      <path id="Path_22139" data-name="Path 22139" d="M1783.219,589.319s14.5-45.481-6.34-46.317-24.292,25.259-16.4,25.259,28.96-11.963,21.091-29.941-52.552-4.615-38.713,7.374,28.335-11.339,23.3-20.669-41.9,2.724-41.9,2.724" transform="translate(-1627.755 -24.417)" fill="none" stroke="#000" stroke-width="1"/>
    </g>
  </g>
</svg>
